<svg width="420" height="181" viewBox="0 0 420 181" xmlns="http://www.w3.org/2000/svg">
  <style>
    .title { font: 600 16px 'Segoe UI', Ubuntu, Sans-Serif; fill: #58a6ff; }
    .label { font: 400 13px 'Segoe UI', Ubuntu, Sans-Serif; fill: #c9d1d9; }
    .value { font: 600 13px 'Segoe UI', Ubuntu, Sans-Serif; fill: #ffffff; }
    .footer { font: 400 10px 'Segoe UI', Ubuntu, Sans-Serif; fill: #6e7681; }
  </style>
  <rect x="0.5" y="0.5" width="419" height="180" rx="10" fill="#0d1117" stroke="#30363d"/>
  <text x="25" y="35" class="title">Most Used Languages</text>
  <rect x="25" y="55" width="370" height="10" rx="5" fill="#30363d"/><rect x="25.0" y="55" width="222.0" height="10" fill="#DA5B0B"/><rect x="247.0" y="55" width="96.9" height="10" fill="#b07219"/><rect x="343.9" y="55" width="18.8" height="10" fill="#3572A5"/><rect x="362.7" y="55" width="14.1" height="10" fill="#563d7c"/><rect x="376.9" y="55" width="10.3" height="10" fill="#f1e05a"/><rect x="387.1" y="55" width="7.9" height="10" fill="#e34c26"/>
  <circle cx="30" cy="91" r="5" fill="#DA5B0B"/>
  <text x="43" y="95" class="label" font-size="12">Jupyter Notebook 59.99%</text>
  <circle cx="225" cy="91" r="5" fill="#b07219"/>
  <text x="238" y="95" class="label" font-size="12">Java 26.19%</text>
  <circle cx="30" cy="113" r="5" fill="#3572A5"/>
  <text x="43" y="117" class="label" font-size="12">Python 5.09%</text>
  <circle cx="225" cy="113" r="5" fill="#563d7c"/>
  <text x="238" y="117" class="label" font-size="12">CSS 3.82%</text>
  <circle cx="30" cy="135" r="5" fill="#f1e05a"/>
  <text x="43" y="139" class="label" font-size="12">JavaScript 2.77%</text>
  <circle cx="225" cy="135" r="5" fill="#e34c26"/>
  <text x="238" y="139" class="label" font-size="12">HTML 2.13%</text>
</svg>