<svg width="760" height="175" viewBox="0 0 760 175" xmlns="http://www.w3.org/2000/svg">
  <style>
    .title { font: 600 16px 'Segoe UI', Ubuntu, Sans-Serif; fill: #58a6ff; }
    .label { font: 400 13px 'Segoe UI', Ubuntu, Sans-Serif; fill: #c9d1d9; }
    .value { font: 600 13px 'Segoe UI', Ubuntu, Sans-Serif; fill: #ffffff; }
    .footer { font: 400 10px 'Segoe UI', Ubuntu, Sans-Serif; fill: #6e7681; }
  </style>
  <rect x="0.5" y="0.5" width="759" height="174" rx="10" fill="#0d1117" stroke="#30363d"/>
  <text x="25" y="35" class="title">GitHub Trophies</text>
  
  <rect x="20" y="50" width="110" height="110" rx="8" fill="#161b22" stroke="#8b949e" stroke-width="2"/>
  <text x="75" y="68" text-anchor="middle" font-size="11" font-weight="600" fill="#8b949e">Stars</text>
  <text x="49" y="110" text-anchor="middle" font-size="14">🌿</text>
  <circle cx="75" cy="105" r="20" fill="none" stroke="#8b949e" stroke-width="3"/>
  <text x="75" y="111" text-anchor="middle" font-size="18" font-weight="700" fill="#8b949e">C</text>
  <text x="101" y="110" text-anchor="middle" font-size="14">🌿</text>
  <text x="75" y="140" text-anchor="middle" font-size="9" fill="#c9d1d9">First Star</text>
  <text x="75" y="153" text-anchor="middle" font-size="11" font-weight="600" fill="#ffffff">1pt</text>
  <rect x="142" y="50" width="110" height="110" rx="8" fill="#161b22" stroke="#a371f7" stroke-width="2"/>
  <text x="197" y="68" text-anchor="middle" font-size="11" font-weight="600" fill="#a371f7">Commit</text>
  <text x="171" y="110" text-anchor="middle" font-size="14">🌿</text>
  <circle cx="197" cy="105" r="20" fill="none" stroke="#a371f7" stroke-width="3"/>
  <text x="197" y="111" text-anchor="middle" font-size="18" font-weight="700" fill="#a371f7">B</text>
  <text x="223" y="110" text-anchor="middle" font-size="14">🌿</text>
  <text x="197" y="140" text-anchor="middle" font-size="9" fill="#c9d1d9">Active Committer</text>
  <text x="197" y="153" text-anchor="middle" font-size="11" font-weight="600" fill="#ffffff">93pt</text>
  <rect x="264" y="50" width="110" height="110" rx="8" fill="#161b22" stroke="#8b949e" stroke-width="2"/>
  <text x="319" y="68" text-anchor="middle" font-size="11" font-weight="600" fill="#8b949e">Followers</text>
  <text x="293" y="110" text-anchor="middle" font-size="14">🌿</text>
  <circle cx="319" cy="105" r="20" fill="none" stroke="#8b949e" stroke-width="3"/>
  <text x="319" y="111" text-anchor="middle" font-size="18" font-weight="700" fill="#8b949e">C</text>
  <text x="345" y="110" text-anchor="middle" font-size="14">🌿</text>
  <text x="319" y="140" text-anchor="middle" font-size="9" fill="#c9d1d9">First Follower</text>
  <text x="319" y="153" text-anchor="middle" font-size="11" font-weight="600" fill="#ffffff">1pt</text>
  <rect x="386" y="50" width="110" height="110" rx="8" fill="#161b22" stroke="#8b949e" stroke-width="2"/>
  <text x="441" y="68" text-anchor="middle" font-size="11" font-weight="600" fill="#8b949e">Issues</text>
  <text x="415" y="110" text-anchor="middle" font-size="14">🌿</text>
  <circle cx="441" cy="105" r="20" fill="none" stroke="#8b949e" stroke-width="3"/>
  <text x="441" y="111" text-anchor="middle" font-size="18" font-weight="700" fill="#8b949e">C</text>
  <text x="467" y="110" text-anchor="middle" font-size="14">🌿</text>
  <text x="441" y="140" text-anchor="middle" font-size="9" fill="#c9d1d9">First Issue</text>
  <text x="441" y="153" text-anchor="middle" font-size="11" font-weight="600" fill="#ffffff">0pt</text>
  <rect x="508" y="50" width="110" height="110" rx="8" fill="#161b22" stroke="#8b949e" stroke-width="2"/>
  <text x="563" y="68" text-anchor="middle" font-size="11" font-weight="600" fill="#8b949e">PullRequest</text>
  <text x="537" y="110" text-anchor="middle" font-size="14">🌿</text>
  <circle cx="563" cy="105" r="20" fill="none" stroke="#8b949e" stroke-width="3"/>
  <text x="563" y="111" text-anchor="middle" font-size="18" font-weight="700" fill="#8b949e">C</text>
  <text x="589" y="110" text-anchor="middle" font-size="14">🌿</text>
  <text x="563" y="140" text-anchor="middle" font-size="9" fill="#c9d1d9">First PR</text>
  <text x="563" y="153" text-anchor="middle" font-size="11" font-weight="600" fill="#ffffff">0pt</text>
  <rect x="630" y="50" width="110" height="110" rx="8" fill="#161b22" stroke="#a371f7" stroke-width="2"/>
  <text x="685" y="68" text-anchor="middle" font-size="11" font-weight="600" fill="#a371f7">Repositories</text>
  <text x="659" y="110" text-anchor="middle" font-size="14">🌿</text>
  <circle cx="685" cy="105" r="20" fill="none" stroke="#a371f7" stroke-width="3"/>
  <text x="685" y="111" text-anchor="middle" font-size="18" font-weight="700" fill="#a371f7">B</text>
  <text x="711" y="110" text-anchor="middle" font-size="14">🌿</text>
  <text x="685" y="140" text-anchor="middle" font-size="9" fill="#c9d1d9">Repo Builder</text>
  <text x="685" y="153" text-anchor="middle" font-size="11" font-weight="600" fill="#ffffff">8pt</text>
</svg>